<?xml version="1.0" encoding="UTF-8"?>
<mxfile host="app.diagrams.net" modified="2024-03-18T16:11:07.905Z" agent="Mozilla/5.0 (Windows NT 10.0; Win64; x64) AppleWebKit/537.36 (KHTML, like Gecko) Chrome/122.0.0.0 Safari/537.36" etag="1CltiVcRn2aMLLI_-hzA" version="24.0.5" type="google">
  <diagram name="Page-1" id="c7488fd3-1785-93aa-aadb-54a6760d102a">
    <mxGraphModel dx="1799" dy="946" grid="1" gridSize="10" guides="1" tooltips="1" connect="1" arrows="1" fold="1" page="1" pageScale="1" pageWidth="1100" pageHeight="850" background="none" math="0" shadow="0">
      <root>
        <mxCell id="0" />
        <mxCell id="1" parent="0" />
        <mxCell id="oNmySMJxmaAf7tk7QPwc-4" value="Server" style="swimlane;html=1;startSize=20;fontStyle=0;collapsible=0;horizontal=0;swimlaneLine=1;swimlaneFillColor=#ffffff;strokeWidth=2;" parent="1" vertex="1">
          <mxGeometry x="80" y="100" width="1550" height="230" as="geometry" />
        </mxCell>
        <mxCell id="oNmySMJxmaAf7tk7QPwc-5" value="Odbierz sygnał dodania połączenia do obserwowanych" style="points=[[0.25,0,0],[0.5,0,0],[0.75,0,0],[1,0.25,0],[1,0.5,0],[1,0.75,0],[0.75,1,0],[0.5,1,0],[0.25,1,0],[0,0.75,0],[0,0.5,0],[0,0.25,0]];shape=mxgraph.bpmn.task;whiteSpace=wrap;rectStyle=rounded;size=10;taskMarker=abstract;" parent="oNmySMJxmaAf7tk7QPwc-4" vertex="1">
          <mxGeometry x="120" y="45" width="120" height="80" as="geometry" />
        </mxCell>
        <mxCell id="oNmySMJxmaAf7tk7QPwc-6" value="Dodaj obserwację" style="points=[[0.25,0,0],[0.5,0,0],[0.75,0,0],[1,0.25,0],[1,0.5,0],[1,0.75,0],[0.75,1,0],[0.5,1,0],[0.25,1,0],[0,0.75,0],[0,0.5,0],[0,0.25,0]];shape=mxgraph.bpmn.task;whiteSpace=wrap;rectStyle=rounded;size=10;taskMarker=abstract;" parent="oNmySMJxmaAf7tk7QPwc-4" vertex="1">
          <mxGeometry x="290" y="45" width="120" height="80" as="geometry" />
        </mxCell>
        <mxCell id="oNmySMJxmaAf7tk7QPwc-7" value="" style="edgeStyle=elbowEdgeStyle;fontSize=12;html=1;endArrow=blockThin;endFill=1;rounded=0;exitX=1;exitY=0.5;exitDx=0;exitDy=0;exitPerimeter=0;entryX=0;entryY=0.5;entryDx=0;entryDy=0;entryPerimeter=0;" parent="oNmySMJxmaAf7tk7QPwc-4" source="oNmySMJxmaAf7tk7QPwc-5" target="oNmySMJxmaAf7tk7QPwc-6" edge="1">
          <mxGeometry width="160" relative="1" as="geometry">
            <mxPoint x="300" y="10" as="sourcePoint" />
            <mxPoint x="460" y="10" as="targetPoint" />
          </mxGeometry>
        </mxCell>
        <mxCell id="oNmySMJxmaAf7tk7QPwc-28" value="Monitoruj obłożenie pociągu na trasie do czasu rozpoczęcia przejazdu" style="points=[[0.25,0,0],[0.5,0,0],[0.75,0,0],[1,0.25,0],[1,0.5,0],[1,0.75,0],[0.75,1,0],[0.5,1,0],[0.25,1,0],[0,0.75,0],[0,0.5,0],[0,0.25,0]];shape=mxgraph.bpmn.task;whiteSpace=wrap;rectStyle=rounded;size=10;html=1;container=1;expand=0;collapsible=0;taskMarker=service;" parent="oNmySMJxmaAf7tk7QPwc-4" vertex="1">
          <mxGeometry x="550" y="45" width="120" height="95" as="geometry" />
        </mxCell>
        <mxCell id="oNmySMJxmaAf7tk7QPwc-29" style="edgeStyle=orthogonalEdgeStyle;rounded=0;orthogonalLoop=1;jettySize=auto;html=1;entryX=0;entryY=0.5;entryDx=0;entryDy=0;entryPerimeter=0;" parent="oNmySMJxmaAf7tk7QPwc-4" source="oNmySMJxmaAf7tk7QPwc-6" target="oNmySMJxmaAf7tk7QPwc-28" edge="1">
          <mxGeometry relative="1" as="geometry" />
        </mxCell>
        <mxCell id="oNmySMJxmaAf7tk7QPwc-47" style="edgeStyle=orthogonalEdgeStyle;rounded=0;orthogonalLoop=1;jettySize=auto;html=1;entryX=0.5;entryY=0;entryDx=0;entryDy=0;entryPerimeter=0;" parent="oNmySMJxmaAf7tk7QPwc-4" target="oNmySMJxmaAf7tk7QPwc-28" edge="1">
          <mxGeometry relative="1" as="geometry">
            <mxPoint x="610" y="40" as="targetPoint" />
            <Array as="points">
              <mxPoint x="1155" y="30" />
              <mxPoint x="610" y="30" />
            </Array>
            <mxPoint x="1154.9999999999995" y="40.00000000000068" as="sourcePoint" />
          </mxGeometry>
        </mxCell>
        <mxCell id="oNmySMJxmaAf7tk7QPwc-48" value="Nie" style="edgeLabel;html=1;align=center;verticalAlign=middle;resizable=0;points=[];" parent="oNmySMJxmaAf7tk7QPwc-47" vertex="1" connectable="0">
          <mxGeometry x="-0.7545" relative="1" as="geometry">
            <mxPoint as="offset" />
          </mxGeometry>
        </mxCell>
        <mxCell id="oNmySMJxmaAf7tk7QPwc-37" value="zwolnione miejsce odpowiada&lt;div&gt;&amp;nbsp;obserwowanym kryteriom&lt;/div&gt;" style="points=[[0.25,0.25,0],[0.5,0,0],[0.75,0.25,0],[1,0.5,0],[0.75,0.75,0],[0.5,1,0],[0.25,0.75,0],[0,0.5,0]];shape=mxgraph.bpmn.gateway2;html=1;verticalLabelPosition=bottom;labelBackgroundColor=#ffffff;verticalAlign=top;align=center;perimeter=rhombusPerimeter;outlineConnect=0;outline=none;symbol=none;" parent="oNmySMJxmaAf7tk7QPwc-4" vertex="1">
          <mxGeometry x="1130" y="45" width="50" height="50" as="geometry" />
        </mxCell>
        <mxCell id="oNmySMJxmaAf7tk7QPwc-40" value="Wyślij powiadomienie o dostępności miejsca" style="points=[[0.25,0,0],[0.5,0,0],[0.75,0,0],[1,0.25,0],[1,0.5,0],[1,0.75,0],[0.75,1,0],[0.5,1,0],[0.25,1,0],[0,0.75,0],[0,0.5,0],[0,0.25,0]];shape=mxgraph.bpmn.task;whiteSpace=wrap;rectStyle=rounded;size=10;html=1;container=1;expand=0;collapsible=0;taskMarker=abstract;" parent="oNmySMJxmaAf7tk7QPwc-4" vertex="1">
          <mxGeometry x="1310" y="65" width="120" height="80" as="geometry" />
        </mxCell>
        <mxCell id="oNmySMJxmaAf7tk7QPwc-41" style="edgeStyle=orthogonalEdgeStyle;rounded=0;orthogonalLoop=1;jettySize=auto;html=1;entryX=0;entryY=0.5;entryDx=0;entryDy=0;entryPerimeter=0;" parent="oNmySMJxmaAf7tk7QPwc-4" source="oNmySMJxmaAf7tk7QPwc-37" target="oNmySMJxmaAf7tk7QPwc-40" edge="1">
          <mxGeometry relative="1" as="geometry" />
        </mxCell>
        <mxCell id="oNmySMJxmaAf7tk7QPwc-49" value="Tak" style="edgeLabel;html=1;align=center;verticalAlign=middle;resizable=0;points=[];" parent="oNmySMJxmaAf7tk7QPwc-41" vertex="1" connectable="0">
          <mxGeometry x="0.0548" y="-1" relative="1" as="geometry">
            <mxPoint as="offset" />
          </mxGeometry>
        </mxCell>
        <mxCell id="oNmySMJxmaAf7tk7QPwc-56" value="inny klient zwolnił miejsce" style="points=[[0.145,0.145,0],[0.5,0,0],[0.855,0.145,0],[1,0.5,0],[0.855,0.855,0],[0.5,1,0],[0.145,0.855,0],[0,0.5,0]];shape=mxgraph.bpmn.event;html=1;verticalLabelPosition=bottom;labelBackgroundColor=#ffffff;verticalAlign=top;align=center;perimeter=ellipsePerimeter;outlineConnect=0;aspect=fixed;outline=standard;symbol=message;" parent="oNmySMJxmaAf7tk7QPwc-4" vertex="1">
          <mxGeometry x="880" y="60" width="50" height="50" as="geometry" />
        </mxCell>
        <mxCell id="oNmySMJxmaAf7tk7QPwc-60" style="edgeStyle=orthogonalEdgeStyle;rounded=0;orthogonalLoop=1;jettySize=auto;html=1;entryX=0;entryY=0.5;entryDx=0;entryDy=0;entryPerimeter=0;" parent="oNmySMJxmaAf7tk7QPwc-4" source="oNmySMJxmaAf7tk7QPwc-56" target="oNmySMJxmaAf7tk7QPwc-37" edge="1">
          <mxGeometry relative="1" as="geometry" />
        </mxCell>
        <mxCell id="oNmySMJxmaAf7tk7QPwc-62" style="edgeStyle=orthogonalEdgeStyle;rounded=0;orthogonalLoop=1;jettySize=auto;html=1;entryX=0;entryY=0.5;entryDx=0;entryDy=0;entryPerimeter=0;" parent="oNmySMJxmaAf7tk7QPwc-4" source="oNmySMJxmaAf7tk7QPwc-28" target="MM-MDW7mtturoLpy3eD2-8" edge="1">
          <mxGeometry relative="1" as="geometry">
            <Array as="points">
              <mxPoint x="690" y="115" />
              <mxPoint x="690" y="115" />
            </Array>
          </mxGeometry>
        </mxCell>
        <mxCell id="MM-MDW7mtturoLpy3eD2-8" value="" style="points=[[0.25,0.25,0],[0.5,0,0],[0.75,0.25,0],[1,0.5,0],[0.75,0.75,0],[0.5,1,0],[0.25,0.75,0],[0,0.5,0]];shape=mxgraph.bpmn.gateway2;html=1;verticalLabelPosition=bottom;labelBackgroundColor=#ffffff;verticalAlign=top;align=center;perimeter=rhombusPerimeter;outlineConnect=0;outline=boundInt;symbol=multiple;" parent="oNmySMJxmaAf7tk7QPwc-4" vertex="1">
          <mxGeometry x="715" y="90" width="50" height="50" as="geometry" />
        </mxCell>
        <mxCell id="MM-MDW7mtturoLpy3eD2-11" style="edgeStyle=orthogonalEdgeStyle;rounded=0;orthogonalLoop=1;jettySize=auto;html=1;entryX=0.5;entryY=0;entryDx=0;entryDy=0;entryPerimeter=0;exitX=0.5;exitY=0;exitDx=0;exitDy=0;exitPerimeter=0;" parent="oNmySMJxmaAf7tk7QPwc-4" source="MM-MDW7mtturoLpy3eD2-8" target="oNmySMJxmaAf7tk7QPwc-56" edge="1">
          <mxGeometry relative="1" as="geometry" />
        </mxCell>
        <mxCell id="MM-MDW7mtturoLpy3eD2-14" style="edgeStyle=orthogonalEdgeStyle;rounded=0;orthogonalLoop=1;jettySize=auto;html=1;" parent="oNmySMJxmaAf7tk7QPwc-4" source="oNmySMJxmaAf7tk7QPwc-57" target="MM-MDW7mtturoLpy3eD2-13" edge="1">
          <mxGeometry relative="1" as="geometry" />
        </mxCell>
        <mxCell id="oNmySMJxmaAf7tk7QPwc-57" value="" style="points=[[0.145,0.145,0],[0.5,0,0],[0.855,0.145,0],[1,0.5,0],[0.855,0.855,0],[0.5,1,0],[0.145,0.855,0],[0,0.5,0]];shape=mxgraph.bpmn.event;html=1;verticalLabelPosition=bottom;labelBackgroundColor=#ffffff;verticalAlign=top;align=center;perimeter=ellipsePerimeter;outlineConnect=0;aspect=fixed;outline=standard;symbol=timer;" parent="oNmySMJxmaAf7tk7QPwc-4" vertex="1">
          <mxGeometry x="890" y="145.0025" width="50" height="50" as="geometry" />
        </mxCell>
        <mxCell id="MM-MDW7mtturoLpy3eD2-12" style="edgeStyle=orthogonalEdgeStyle;rounded=0;orthogonalLoop=1;jettySize=auto;html=1;" parent="oNmySMJxmaAf7tk7QPwc-4" source="MM-MDW7mtturoLpy3eD2-8" target="oNmySMJxmaAf7tk7QPwc-57" edge="1">
          <mxGeometry relative="1" as="geometry">
            <mxPoint x="890" y="145" as="targetPoint" />
            <Array as="points">
              <mxPoint x="740" y="155" />
            </Array>
          </mxGeometry>
        </mxCell>
        <mxCell id="MM-MDW7mtturoLpy3eD2-13" value="Usuń obserwację" style="rounded=1;whiteSpace=wrap;html=1;" parent="oNmySMJxmaAf7tk7QPwc-4" vertex="1">
          <mxGeometry x="990" y="140" width="120" height="60" as="geometry" />
        </mxCell>
        <mxCell id="MM-MDW7mtturoLpy3eD2-19" style="edgeStyle=orthogonalEdgeStyle;rounded=0;orthogonalLoop=1;jettySize=auto;html=1;entryX=0.25;entryY=0;entryDx=0;entryDy=0;entryPerimeter=0;" parent="oNmySMJxmaAf7tk7QPwc-4" source="oNmySMJxmaAf7tk7QPwc-40" target="oNmySMJxmaAf7tk7QPwc-28" edge="1">
          <mxGeometry relative="1" as="geometry">
            <Array as="points">
              <mxPoint x="1370" y="10" />
              <mxPoint x="580" y="10" />
            </Array>
          </mxGeometry>
        </mxCell>
        <mxCell id="oNmySMJxmaAf7tk7QPwc-2" value="" style="points=[[0.145,0.145,0],[0.5,0,0],[0.855,0.145,0],[1,0.5,0],[0.855,0.855,0],[0.5,1,0],[0.145,0.855,0],[0,0.5,0]];shape=mxgraph.bpmn.event;html=1;verticalLabelPosition=bottom;labelBackgroundColor=#ffffff;verticalAlign=top;align=center;perimeter=ellipsePerimeter;outlineConnect=0;aspect=fixed;outline=standard;symbol=general;" parent="oNmySMJxmaAf7tk7QPwc-4" vertex="1">
          <mxGeometry x="30" y="60" width="50" height="50" as="geometry" />
        </mxCell>
        <mxCell id="4CvoEo51QAblj3uXZ3RA-1" style="edgeStyle=orthogonalEdgeStyle;rounded=0;orthogonalLoop=1;jettySize=auto;html=1;entryX=0;entryY=0.5;entryDx=0;entryDy=0;entryPerimeter=0;" edge="1" parent="oNmySMJxmaAf7tk7QPwc-4" source="oNmySMJxmaAf7tk7QPwc-2" target="oNmySMJxmaAf7tk7QPwc-5">
          <mxGeometry relative="1" as="geometry" />
        </mxCell>
        <mxCell id="oNmySMJxmaAf7tk7QPwc-42" value="" style="points=[[0.145,0.145,0],[0.5,0,0],[0.855,0.145,0],[1,0.5,0],[0.855,0.855,0],[0.5,1,0],[0.145,0.855,0],[0,0.5,0]];shape=mxgraph.bpmn.event;html=1;verticalLabelPosition=bottom;labelBackgroundColor=#ffffff;verticalAlign=top;align=center;perimeter=ellipsePerimeter;outlineConnect=0;aspect=fixed;outline=end;symbol=terminate2;" parent="oNmySMJxmaAf7tk7QPwc-4" vertex="1">
          <mxGeometry x="1470" y="145" width="50" height="50" as="geometry" />
        </mxCell>
        <mxCell id="4CvoEo51QAblj3uXZ3RA-4" style="edgeStyle=orthogonalEdgeStyle;rounded=0;orthogonalLoop=1;jettySize=auto;html=1;entryX=0;entryY=0.5;entryDx=0;entryDy=0;entryPerimeter=0;" edge="1" parent="oNmySMJxmaAf7tk7QPwc-4" source="MM-MDW7mtturoLpy3eD2-13" target="oNmySMJxmaAf7tk7QPwc-42">
          <mxGeometry relative="1" as="geometry" />
        </mxCell>
        <mxCell id="oNmySMJxmaAf7tk7QPwc-10" value="Id użytkownika, dane połączenia" style="shape=mxgraph.bpmn.data;labelPosition=center;verticalLabelPosition=bottom;align=center;verticalAlign=top;whiteSpace=wrap;size=15;html=1;" parent="1" vertex="1">
          <mxGeometry x="280" y="380" width="40" height="60" as="geometry" />
        </mxCell>
        <mxCell id="oNmySMJxmaAf7tk7QPwc-11" value="" style="edgeStyle=elbowEdgeStyle;fontSize=12;html=1;endFill=0;startFill=0;endSize=6;startSize=6;dashed=1;dashPattern=1 4;endArrow=openThin;startArrow=none;rounded=0;exitX=0.5;exitY=1;exitDx=0;exitDy=0;exitPerimeter=0;entryX=0;entryY=0.5;entryDx=0;entryDy=0;entryPerimeter=0;" parent="1" source="oNmySMJxmaAf7tk7QPwc-5" target="oNmySMJxmaAf7tk7QPwc-10" edge="1">
          <mxGeometry width="160" relative="1" as="geometry">
            <mxPoint x="380" y="220" as="sourcePoint" />
            <mxPoint x="540" y="220" as="targetPoint" />
            <Array as="points">
              <mxPoint x="250" y="290" />
            </Array>
          </mxGeometry>
        </mxCell>
        <mxCell id="oNmySMJxmaAf7tk7QPwc-12" value="" style="edgeStyle=elbowEdgeStyle;fontSize=12;html=1;endFill=0;startFill=0;endSize=6;startSize=6;dashed=1;dashPattern=1 4;endArrow=openThin;startArrow=none;rounded=0;exitX=0;exitY=0;exitDx=40;exitDy=37.5;exitPerimeter=0;entryX=0.25;entryY=1;entryDx=0;entryDy=0;entryPerimeter=0;" parent="1" source="oNmySMJxmaAf7tk7QPwc-10" target="oNmySMJxmaAf7tk7QPwc-6" edge="1">
          <mxGeometry width="160" relative="1" as="geometry">
            <mxPoint x="380" y="220" as="sourcePoint" />
            <mxPoint x="540" y="220" as="targetPoint" />
            <Array as="points">
              <mxPoint x="400" y="290" />
            </Array>
          </mxGeometry>
        </mxCell>
        <mxCell id="oNmySMJxmaAf7tk7QPwc-17" value="&lt;font style=&quot;font-size: 20px&quot;&gt;Obserwowanie połączenia (klient nie ma biletu)&lt;/font&gt;" style="text;html=1;align=center;verticalAlign=middle;resizable=0;points=[];autosize=1;strokeColor=none;fillColor=none;" parent="1" vertex="1">
          <mxGeometry x="80" y="60" width="440" height="40" as="geometry" />
        </mxCell>
        <mxCell id="oNmySMJxmaAf7tk7QPwc-88" value="&lt;font style=&quot;font-size: 20px&quot;&gt;Obserwowanie połączenia (klient posiada bilet)&lt;/font&gt;" style="text;html=1;align=center;verticalAlign=middle;resizable=0;points=[];autosize=1;strokeColor=none;fillColor=none;" parent="1" vertex="1">
          <mxGeometry x="80" y="560" width="440" height="40" as="geometry" />
        </mxCell>
        <mxCell id="MM-MDW7mtturoLpy3eD2-24" value="Server" style="swimlane;html=1;startSize=20;fontStyle=0;collapsible=0;horizontal=0;swimlaneLine=1;swimlaneFillColor=#ffffff;strokeWidth=2;" parent="1" vertex="1">
          <mxGeometry x="80" y="600" width="1550" height="230" as="geometry" />
        </mxCell>
        <mxCell id="MM-MDW7mtturoLpy3eD2-25" value="Odbierz sygnał kupienia biletu" style="points=[[0.25,0,0],[0.5,0,0],[0.75,0,0],[1,0.25,0],[1,0.5,0],[1,0.75,0],[0.75,1,0],[0.5,1,0],[0.25,1,0],[0,0.75,0],[0,0.5,0],[0,0.25,0]];shape=mxgraph.bpmn.task;whiteSpace=wrap;rectStyle=rounded;size=10;taskMarker=abstract;" parent="MM-MDW7mtturoLpy3eD2-24" vertex="1">
          <mxGeometry x="120" y="45" width="120" height="80" as="geometry" />
        </mxCell>
        <mxCell id="MM-MDW7mtturoLpy3eD2-26" value="Dodaj obserwację" style="points=[[0.25,0,0],[0.5,0,0],[0.75,0,0],[1,0.25,0],[1,0.5,0],[1,0.75,0],[0.75,1,0],[0.5,1,0],[0.25,1,0],[0,0.75,0],[0,0.5,0],[0,0.25,0]];shape=mxgraph.bpmn.task;whiteSpace=wrap;rectStyle=rounded;size=10;taskMarker=abstract;" parent="MM-MDW7mtturoLpy3eD2-24" vertex="1">
          <mxGeometry x="290" y="45" width="120" height="80" as="geometry" />
        </mxCell>
        <mxCell id="MM-MDW7mtturoLpy3eD2-27" value="" style="edgeStyle=elbowEdgeStyle;fontSize=12;html=1;endArrow=blockThin;endFill=1;rounded=0;exitX=1;exitY=0.5;exitDx=0;exitDy=0;exitPerimeter=0;entryX=0;entryY=0.5;entryDx=0;entryDy=0;entryPerimeter=0;" parent="MM-MDW7mtturoLpy3eD2-24" source="MM-MDW7mtturoLpy3eD2-25" target="MM-MDW7mtturoLpy3eD2-26" edge="1">
          <mxGeometry width="160" relative="1" as="geometry">
            <mxPoint x="300" y="10" as="sourcePoint" />
            <mxPoint x="460" y="10" as="targetPoint" />
          </mxGeometry>
        </mxCell>
        <mxCell id="MM-MDW7mtturoLpy3eD2-28" value="Monitoruj obłożenie pociągu na trasie do czasu rozpoczęcia przejazdu" style="points=[[0.25,0,0],[0.5,0,0],[0.75,0,0],[1,0.25,0],[1,0.5,0],[1,0.75,0],[0.75,1,0],[0.5,1,0],[0.25,1,0],[0,0.75,0],[0,0.5,0],[0,0.25,0]];shape=mxgraph.bpmn.task;whiteSpace=wrap;rectStyle=rounded;size=10;html=1;container=1;expand=0;collapsible=0;taskMarker=service;" parent="MM-MDW7mtturoLpy3eD2-24" vertex="1">
          <mxGeometry x="550" y="45" width="120" height="95" as="geometry" />
        </mxCell>
        <mxCell id="MM-MDW7mtturoLpy3eD2-29" style="edgeStyle=orthogonalEdgeStyle;rounded=0;orthogonalLoop=1;jettySize=auto;html=1;entryX=0;entryY=0.5;entryDx=0;entryDy=0;entryPerimeter=0;" parent="MM-MDW7mtturoLpy3eD2-24" source="MM-MDW7mtturoLpy3eD2-26" target="MM-MDW7mtturoLpy3eD2-28" edge="1">
          <mxGeometry relative="1" as="geometry" />
        </mxCell>
        <mxCell id="MM-MDW7mtturoLpy3eD2-30" style="edgeStyle=orthogonalEdgeStyle;rounded=0;orthogonalLoop=1;jettySize=auto;html=1;" parent="MM-MDW7mtturoLpy3eD2-24" source="MM-MDW7mtturoLpy3eD2-32" target="MM-MDW7mtturoLpy3eD2-28" edge="1">
          <mxGeometry relative="1" as="geometry">
            <mxPoint x="625" y="130" as="targetPoint" />
            <Array as="points">
              <mxPoint x="1155" y="30" />
              <mxPoint x="610" y="30" />
            </Array>
          </mxGeometry>
        </mxCell>
        <mxCell id="MM-MDW7mtturoLpy3eD2-31" value="Nie" style="edgeLabel;html=1;align=center;verticalAlign=middle;resizable=0;points=[];" parent="MM-MDW7mtturoLpy3eD2-30" vertex="1" connectable="0">
          <mxGeometry x="-0.7545" relative="1" as="geometry">
            <mxPoint as="offset" />
          </mxGeometry>
        </mxCell>
        <mxCell id="MM-MDW7mtturoLpy3eD2-32" value="zwolnione miejsce jest&amp;nbsp;&lt;div&gt;lepszą opcją przejazdu&lt;br&gt;&lt;/div&gt;" style="points=[[0.25,0.25,0],[0.5,0,0],[0.75,0.25,0],[1,0.5,0],[0.75,0.75,0],[0.5,1,0],[0.25,0.75,0],[0,0.5,0]];shape=mxgraph.bpmn.gateway2;html=1;verticalLabelPosition=bottom;labelBackgroundColor=#ffffff;verticalAlign=top;align=center;perimeter=rhombusPerimeter;outlineConnect=0;outline=none;symbol=none;" parent="MM-MDW7mtturoLpy3eD2-24" vertex="1">
          <mxGeometry x="1130" y="50" width="50" height="50" as="geometry" />
        </mxCell>
        <mxCell id="MM-MDW7mtturoLpy3eD2-33" value="Wyślij powiadomienie o dostępnym lepszym przejaździe" style="points=[[0.25,0,0],[0.5,0,0],[0.75,0,0],[1,0.25,0],[1,0.5,0],[1,0.75,0],[0.75,1,0],[0.5,1,0],[0.25,1,0],[0,0.75,0],[0,0.5,0],[0,0.25,0]];shape=mxgraph.bpmn.task;whiteSpace=wrap;rectStyle=rounded;size=10;html=1;container=1;expand=0;collapsible=0;taskMarker=abstract;" parent="MM-MDW7mtturoLpy3eD2-24" vertex="1">
          <mxGeometry x="1310" y="65" width="120" height="80" as="geometry" />
        </mxCell>
        <mxCell id="MM-MDW7mtturoLpy3eD2-34" style="edgeStyle=orthogonalEdgeStyle;rounded=0;orthogonalLoop=1;jettySize=auto;html=1;entryX=0;entryY=0.5;entryDx=0;entryDy=0;entryPerimeter=0;" parent="MM-MDW7mtturoLpy3eD2-24" source="MM-MDW7mtturoLpy3eD2-32" target="MM-MDW7mtturoLpy3eD2-33" edge="1">
          <mxGeometry relative="1" as="geometry" />
        </mxCell>
        <mxCell id="MM-MDW7mtturoLpy3eD2-35" value="Tak" style="edgeLabel;html=1;align=center;verticalAlign=middle;resizable=0;points=[];" parent="MM-MDW7mtturoLpy3eD2-34" vertex="1" connectable="0">
          <mxGeometry x="0.0548" y="-1" relative="1" as="geometry">
            <mxPoint as="offset" />
          </mxGeometry>
        </mxCell>
        <mxCell id="MM-MDW7mtturoLpy3eD2-36" value="inny klient zwolnił miejsce" style="points=[[0.145,0.145,0],[0.5,0,0],[0.855,0.145,0],[1,0.5,0],[0.855,0.855,0],[0.5,1,0],[0.145,0.855,0],[0,0.5,0]];shape=mxgraph.bpmn.event;html=1;verticalLabelPosition=bottom;labelBackgroundColor=#ffffff;verticalAlign=top;align=center;perimeter=ellipsePerimeter;outlineConnect=0;aspect=fixed;outline=standard;symbol=message;" parent="MM-MDW7mtturoLpy3eD2-24" vertex="1">
          <mxGeometry x="890" y="67.5" width="50" height="50" as="geometry" />
        </mxCell>
        <mxCell id="MM-MDW7mtturoLpy3eD2-37" style="edgeStyle=orthogonalEdgeStyle;rounded=0;orthogonalLoop=1;jettySize=auto;html=1;entryX=0;entryY=0.5;entryDx=0;entryDy=0;entryPerimeter=0;" parent="MM-MDW7mtturoLpy3eD2-24" source="MM-MDW7mtturoLpy3eD2-36" target="MM-MDW7mtturoLpy3eD2-32" edge="1">
          <mxGeometry relative="1" as="geometry" />
        </mxCell>
        <mxCell id="MM-MDW7mtturoLpy3eD2-38" style="edgeStyle=orthogonalEdgeStyle;rounded=0;orthogonalLoop=1;jettySize=auto;html=1;entryX=0;entryY=0.5;entryDx=0;entryDy=0;entryPerimeter=0;" parent="MM-MDW7mtturoLpy3eD2-24" source="MM-MDW7mtturoLpy3eD2-28" target="MM-MDW7mtturoLpy3eD2-39" edge="1">
          <mxGeometry relative="1" as="geometry">
            <Array as="points">
              <mxPoint x="690" y="105" />
              <mxPoint x="690" y="105" />
            </Array>
          </mxGeometry>
        </mxCell>
        <mxCell id="MM-MDW7mtturoLpy3eD2-39" value="" style="points=[[0.25,0.25,0],[0.5,0,0],[0.75,0.25,0],[1,0.5,0],[0.75,0.75,0],[0.5,1,0],[0.25,0.75,0],[0,0.5,0]];shape=mxgraph.bpmn.gateway2;html=1;verticalLabelPosition=bottom;labelBackgroundColor=#ffffff;verticalAlign=top;align=center;perimeter=rhombusPerimeter;outlineConnect=0;outline=boundInt;symbol=multiple;" parent="MM-MDW7mtturoLpy3eD2-24" vertex="1">
          <mxGeometry x="715" y="80" width="50" height="50" as="geometry" />
        </mxCell>
        <mxCell id="MM-MDW7mtturoLpy3eD2-40" style="edgeStyle=orthogonalEdgeStyle;rounded=0;orthogonalLoop=1;jettySize=auto;html=1;entryX=0.5;entryY=0;entryDx=0;entryDy=0;entryPerimeter=0;exitX=0.5;exitY=0;exitDx=0;exitDy=0;exitPerimeter=0;" parent="MM-MDW7mtturoLpy3eD2-24" source="MM-MDW7mtturoLpy3eD2-39" target="MM-MDW7mtturoLpy3eD2-36" edge="1">
          <mxGeometry relative="1" as="geometry" />
        </mxCell>
        <mxCell id="MM-MDW7mtturoLpy3eD2-41" style="edgeStyle=orthogonalEdgeStyle;rounded=0;orthogonalLoop=1;jettySize=auto;html=1;" parent="MM-MDW7mtturoLpy3eD2-24" source="MM-MDW7mtturoLpy3eD2-42" target="MM-MDW7mtturoLpy3eD2-44" edge="1">
          <mxGeometry relative="1" as="geometry" />
        </mxCell>
        <mxCell id="MM-MDW7mtturoLpy3eD2-42" value="" style="points=[[0.145,0.145,0],[0.5,0,0],[0.855,0.145,0],[1,0.5,0],[0.855,0.855,0],[0.5,1,0],[0.145,0.855,0],[0,0.5,0]];shape=mxgraph.bpmn.event;html=1;verticalLabelPosition=bottom;labelBackgroundColor=#ffffff;verticalAlign=top;align=center;perimeter=ellipsePerimeter;outlineConnect=0;aspect=fixed;outline=standard;symbol=timer;" parent="MM-MDW7mtturoLpy3eD2-24" vertex="1">
          <mxGeometry x="890" y="150.0025" width="50" height="50" as="geometry" />
        </mxCell>
        <mxCell id="MM-MDW7mtturoLpy3eD2-43" style="edgeStyle=orthogonalEdgeStyle;rounded=0;orthogonalLoop=1;jettySize=auto;html=1;entryX=0;entryY=0.5;entryDx=0;entryDy=0;entryPerimeter=0;" parent="MM-MDW7mtturoLpy3eD2-24" source="MM-MDW7mtturoLpy3eD2-39" target="MM-MDW7mtturoLpy3eD2-42" edge="1">
          <mxGeometry relative="1" as="geometry">
            <mxPoint x="890" y="145" as="targetPoint" />
            <Array as="points">
              <mxPoint x="740" y="175" />
            </Array>
          </mxGeometry>
        </mxCell>
        <mxCell id="MM-MDW7mtturoLpy3eD2-44" value="Usuń obserwację" style="rounded=1;whiteSpace=wrap;html=1;" parent="MM-MDW7mtturoLpy3eD2-24" vertex="1">
          <mxGeometry x="990" y="145" width="120" height="60" as="geometry" />
        </mxCell>
        <mxCell id="MM-MDW7mtturoLpy3eD2-80" style="edgeStyle=orthogonalEdgeStyle;rounded=0;orthogonalLoop=1;jettySize=auto;html=1;entryX=0.25;entryY=0;entryDx=0;entryDy=0;entryPerimeter=0;" parent="MM-MDW7mtturoLpy3eD2-24" source="MM-MDW7mtturoLpy3eD2-33" target="MM-MDW7mtturoLpy3eD2-28" edge="1">
          <mxGeometry relative="1" as="geometry">
            <Array as="points">
              <mxPoint x="1370" y="10" />
              <mxPoint x="580" y="10" />
            </Array>
          </mxGeometry>
        </mxCell>
        <mxCell id="MM-MDW7mtturoLpy3eD2-23" value="" style="points=[[0.145,0.145,0],[0.5,0,0],[0.855,0.145,0],[1,0.5,0],[0.855,0.855,0],[0.5,1,0],[0.145,0.855,0],[0,0.5,0]];shape=mxgraph.bpmn.event;html=1;verticalLabelPosition=bottom;labelBackgroundColor=#ffffff;verticalAlign=top;align=center;perimeter=ellipsePerimeter;outlineConnect=0;aspect=fixed;outline=end;symbol=terminate2;" parent="MM-MDW7mtturoLpy3eD2-24" vertex="1">
          <mxGeometry x="1450" y="150" width="50" height="50" as="geometry" />
        </mxCell>
        <mxCell id="4CvoEo51QAblj3uXZ3RA-5" style="edgeStyle=orthogonalEdgeStyle;rounded=0;orthogonalLoop=1;jettySize=auto;html=1;entryX=0;entryY=0.5;entryDx=0;entryDy=0;entryPerimeter=0;" edge="1" parent="MM-MDW7mtturoLpy3eD2-24" source="MM-MDW7mtturoLpy3eD2-44" target="MM-MDW7mtturoLpy3eD2-23">
          <mxGeometry relative="1" as="geometry" />
        </mxCell>
        <mxCell id="MM-MDW7mtturoLpy3eD2-46" value="Id użytkownika, dane połączenia" style="shape=mxgraph.bpmn.data;labelPosition=center;verticalLabelPosition=bottom;align=center;verticalAlign=top;whiteSpace=wrap;size=15;html=1;" parent="1" vertex="1">
          <mxGeometry x="280" y="880" width="40" height="60" as="geometry" />
        </mxCell>
        <mxCell id="MM-MDW7mtturoLpy3eD2-47" value="" style="edgeStyle=elbowEdgeStyle;fontSize=12;html=1;endFill=0;startFill=0;endSize=6;startSize=6;dashed=1;dashPattern=1 4;endArrow=openThin;startArrow=none;rounded=0;exitX=0.5;exitY=1;exitDx=0;exitDy=0;exitPerimeter=0;entryX=0;entryY=0.5;entryDx=0;entryDy=0;entryPerimeter=0;" parent="1" source="MM-MDW7mtturoLpy3eD2-25" target="MM-MDW7mtturoLpy3eD2-46" edge="1">
          <mxGeometry width="160" relative="1" as="geometry">
            <mxPoint x="380" y="720" as="sourcePoint" />
            <mxPoint x="540" y="720" as="targetPoint" />
            <Array as="points">
              <mxPoint x="250" y="790" />
            </Array>
          </mxGeometry>
        </mxCell>
        <mxCell id="MM-MDW7mtturoLpy3eD2-48" value="" style="edgeStyle=elbowEdgeStyle;fontSize=12;html=1;endFill=0;startFill=0;endSize=6;startSize=6;dashed=1;dashPattern=1 4;endArrow=openThin;startArrow=none;rounded=0;exitX=0;exitY=0;exitDx=40;exitDy=37.5;exitPerimeter=0;entryX=0.25;entryY=1;entryDx=0;entryDy=0;entryPerimeter=0;" parent="1" source="MM-MDW7mtturoLpy3eD2-46" target="MM-MDW7mtturoLpy3eD2-26" edge="1">
          <mxGeometry width="160" relative="1" as="geometry">
            <mxPoint x="380" y="720" as="sourcePoint" />
            <mxPoint x="540" y="720" as="targetPoint" />
            <Array as="points">
              <mxPoint x="400" y="790" />
            </Array>
          </mxGeometry>
        </mxCell>
      </root>
    </mxGraphModel>
  </diagram>
</mxfile>
